/* XPM */
static char * closeA_xpm[] = {
"28 41 10 1",
" 	c #5F00AF",
".	c #804BAE",
"+	c #FFFFFF",
"@	c #000000",
"#	c #B3B3B3",
"$	c #888888",
"%	c #470083",
"&	c #2F0058",
"*	c #693497",
"=	c #A1A1A1",
" .                          ",
" .                          ",
"..                          ",
"..                          ",
"..        +      +          ",
"..      @#++    +++         ",
"..       @#++  +++          ",
"..        @#+++++           ",
"..         @++++            ",
"..         @++++            ",
"..        @++#+++           ",
"..       @++#@@#++          ",
"..      @+##   @#++         ",
"..       @#     @#          ",
"..                          ",
"..                          ",
"........................... ",
".........................   ",
"                            ",
"$$$$$$$$$$$$$$$$$$$$$$$$$$$$",
"%%&&&&&&&&&&&&&&&&&&&&&&&&&&",
"*%%&&&&&&&&&&&&&&&&&&&&&&&&&",
"*%%%%%%%%%%%%%%%%%%%%%%%%%&&",
"*%%%%%%%%%%%%%%%%%%%%%%%%%&&",
"*%%%%%%%%%%%%%%%%%%%%%%%%%&&",
"*%%%%%%%%%%%%%%%%%%%%%%%%%&&",
"*%%%%%%%=%%%%%%=%%%%%%%%%%&&",
"*%%%%%@===%%%%===%%%%%%%%%&&",
"*%%%%%%@===%%===%%%%%%%%%%&&",
"*%%%%%%%@======%%%%%%%%%%%&&",
"*%%%%%%%%@====%%%%%%%%%%%%&&",
"*%%%%%%%%@====%%%%%%%%%%%%&&",
"*%%%%%%%@======%%%%%%%%%%%&&",
"*%%%%%%@===@@===%%%%%%%%%%&&",
"*%%%%%@===%%%@===%%%%%%%%%%&",
"*%%%%%%@=%%%%%@=%%%%%%%%%%%&",
"*%%%%%%%%%%%%%%%%%%%%%%%%%%&",
"*%%%%%%%%%%%%%%%%%%%%%%%%%%%",
"************************%%%%",
"                          %%",
"$$$$$$$$$$$$$$$$$$$$$$$$$$$$"};
