/* XPM */
static char * closeI_xpm[] = {
"28 41 10 1",
" 	c #AF5FFF",
".	c #B99AD8",
"+	c #FFFFFF",
"@	c #000000",
"#	c #B3B3B3",
"$	c #888888",
"%	c #7F26D8",
"&	c #BC81F6",
"*	c #A1A1A1",
"=	c #A16FD3",
" .                          ",
" .                          ",
"..                          ",
"..                          ",
"..        +      +          ",
"..      @#++    +++         ",
"..       @#++  +++          ",
"..        @#+++++           ",
"..         @++++            ",
"..         @++++            ",
"..        @++#+++           ",
"..       @++#@@#++          ",
"..      @+##   @#++         ",
"..       @#     @#          ",
"..                          ",
"..                          ",
"........................... ",
".........................   ",
"                            ",
"$$$$$$$$$$$$$$$$$$$$$$$$$$$$",
"  %%%%%%%%%%%%%%%%%%%%%%%%%%",
"&  %%%%%%%%%%%%%%%%%%%%%%%%%",
"&                         %%",
"&                         %%",
"&                         %%",
"&                         %%",
"&       *      *          %%",
"&     @***    ***         %%",
"&      @***  ***          %%",
"&       @******           %%",
"&        @****            %%",
"&        @****            %%",
"&       @******           %%",
"&      @***@@***          %%",
"&     @***   @***          %",
"&      @*     @*           %",
"&                          %",
"&                           ",
"&&&&&&&&&&&&&&&&&&&&&&&&    ",
"==========================  ",
"$$$$$$$$$$$$$$$$$$$$$$$$$$$$"};
