/* XPM */
static char * menuButtonI_xpm[] = {
"23 42 4 1",
" 	c #AF5FFF",
".	c #888888",
"+	c #BC81F6",
"@	c #000000",
"                       ",
"                       ",
"                       ",
"                       ",
"                       ",
"                       ",
"                       ",
"                       ",
"                       ",
"                       ",
"                       ",
"                       ",
"                       ",
"                       ",
"                       ",
"                       ",
"                       ",
"                       ",
"                       ",
"                       ",
".......................",
"                       ",
"  ++++++++++++++++     ",
" +                @    ",
" +                @    ",
" +                @    ",
" +                @    ",
" +                @    ",
" +                @    ",
" +                @    ",
" +                @    ",
" +                @    ",
" +                @    ",
" +                @    ",
" +                @    ",
" +                @    ",
" +                @    ",
" +                @    ",
" +                @    ",
"  @@@@@@@@@@@@@@@@@    ",
"                       ",
"......................."};
