/* XPM */
static char * minimizeA_xpm[] = {
"20 42 9 1",
" 	c #5F00AF",
".	c #804BAE",
"+	c #888888",
"@	c #FFFFFF",
"#	c #000000",
"$	c #470083",
"%	c #2F0058",
"&	c #693497",
"*	c #A1A1A1",
"                    ",
".                   ",
"..                  ",
"..                  ",
"..                  ",
"..        +@        ",
"..       #+@        ",
"..       #+@        ",
"..       #+@        ",
"..     +@#+@ +@     ",
"..     #+@+@+@      ",
"..      #+@@@       ",
"..       #+@        ",
"..  +@@@@@@@@@@@@@  ",
".. #++++++++++++++  ",
".. ##############   ",
"..                  ",
"..................  ",
"................... ",
"                    ",
"++++++++++++++++++++",
"$$%%%%%%%%%%%%%%%%%%",
"&$$%%%%%%%%%%%%%%%%%",
"&$$$$$$$$$$$$$$$$$%%",
"&$$$$$$$$$$$$$$$$$%%",
"&$$$$$$$$$$$$$$$$$%%",
"&$$$$$$$$$$$$$$$$$%%",
"&$$$$$$$$**$$$$$$$%%",
"&$$$$$$$#**$$$$$$$%%",
"&$$$$$$$#**$$$$$$$%%",
"&$$$$$$$#**$$$$$$$%%",
"&$$$$$**#**$**$$$$%%",
"&$$$$$#******$$$$$%%",
"&$$$$$$#****$$$$$$%%",
"&$$$$$$$#**$$$$$$$%%",
"&$$**************$%%",
"&$#**************$%%",
"&$##############$$$%",
"&$$$$$$$$$$$$$$$$$$$",
"&&&&&&&&&&&&&&&&&&&$",
"                    ",
"++++++++++++++++++++"};
