/* XPM */
static char * restoreA_xpm[] = {
"20 42 9 1",
" 	c #5F00AF",
".	c #804BAE",
"+	c #FFFFFF",
"@	c #000000",
"#	c #888888",
"$	c #470083",
"%	c #2F0058",
"&	c #693497",
"*	c #A1A1A1",
"                    ",
".                   ",
"..                  ",
"..                  ",
"..                  ",
"..  +++++++++++++   ",
".. @+###########+   ",
".. @+@@@@@@@@@@@+   ",
".. @+ #####    @+   ",
".. @+ +   +    @+   ",
".. @+ +   +    @+   ",
".. @+ +++++    @+   ",
".. @+          @+   ",
".. @+          @+   ",
".. @+++++++++++++   ",
".. @@@@@@@@@@@@@    ",
"..                  ",
"..................  ",
"................... ",
"                    ",
"####################",
"$$%%%%%%%%%%%%%%%%%%",
"&$$%%%%%%%%%%%%%%%%%",
"&$$$$$$$$$$$$$$$$$%%",
"&$$$$$$$$$$$$$$$$$%%",
"&$$$$$$$$$$$$$$$$$%%",
"&$$$$$$$$$$$$$$$$$%%",
"&$$*************$$%%",
"&$@*************$$%%",
"&$@*@@@@@@@@@@@*$$%%",
"&$@*$*****$$$$@*$$%%",
"&$@*$*$$$*$$$$@*$$%%",
"&$@*$*$$$*$$$$@*$$%%",
"&$@*$*****$$$$@*$$%%",
"&$@*$$$$$$$$$$@*$$%%",
"&$@*$$$$$$$$$$@*$$%%",
"&$@*************$$%%",
"&$@@@@@@@@@@@@@$$$$%",
"&$$$$$$$$$$$$$$$$$$$",
"&&&&&&&&&&&&&&&&&&&$",
"                    ",
"####################"};
