/* XPM */
static char * restoreI_xpm[] = {
"20 42 8 1",
" 	c #AF5FFF",
".	c #B99AD8",
"+	c #FFFFFF",
"@	c #000000",
"#	c #888888",
"$	c #7F26D8",
"%	c #BC81F6",
"&	c #BBBBBB",
"                    ",
".                   ",
"..                  ",
"..                  ",
"..                  ",
"..  +++++++++++++   ",
".. @+###########+   ",
".. @+@@@@@@@@@@@+   ",
".. @+ #####    @+   ",
".. @+ +   +    @+   ",
".. @+ +   +    @+   ",
".. @+ +++++    @+   ",
".. @+          @+   ",
".. @+          @+   ",
".. @+++++++++++++   ",
".. @@@@@@@@@@@@@    ",
"..                  ",
"..................  ",
"................... ",
"                    ",
"####################",
"  $$$$$$$$$$$$$$$$$$",
"%  $$$$$$$$$$$$$$$$$",
"%                 $$",
"%                 $$",
"%                 $$",
"%                 $$",
"%  &&&&&&&&&&&&&  $$",
"% @&&&&&&&&&&&&&  $$",
"% @&@@@@@@@@@@@&  $$",
"% @& &&&&&    @&  $$",
"% @& &   &    @&  $$",
"% @& &   &    @&  $$",
"% @& &&&&&    @&  $$",
"% @&          @&  $$",
"% @&          @&  $$",
"% @&&&&&&&&&&&&&  $$",
"% @@@@@@@@@@@@@    $",
"%                   ",
"%%%%%%%%%%%%%%%%%%% ",
"                    ",
"####################"};
