/* XPM */
static char * file_manager_32x32_xpm[] = {
"32 32 8 1",
" 	c None",
".	c #FFFFFF",
"+	c #B0A408",
"@	c #8E8517",
"#	c #AA9E01",
"$	c #A69A00",
"%	c #A39700",
"&	c #988D0F",
"                                ",
" .............                  ",
" .............                  ",
" ..+++++++++.................   ",
"...++....+++.................   ",
"..+++++++++++++++++++++++++..   ",
"..+++++++++++++++++++++++++..   ",
"..+++++++++++++++++++++++++..   ",
"..+@............................",
"..@@............................",
"..@@....+++++++++++++++++++++++.",
"..@@....++++++++++++++++++++++..",
"..@@....++++++++++++++++++++++..",
"..@@...######################...",
"..@@...######################.. ",
"..@....######################.. ",
"..@...$$$$$$$$$$$$$$$$$$$$$$... ",
"..@...$$$$$$$$$$$$$$$$$$$$$$..  ",
"..@..$$$$$$$$$$$$$$$$$$$$$$$..  ",
"..@..%%%%%%%%%%%%%%%%%%%%%%%..  ",
"..@..%%%%%%%%%%%%%%%%%%%%%%...  ",
"..@..&&&&&&&&&&&&&&&&&&&&&&..   ",
"..@.&&&&&&&&&&&&&&&&&&&&&&&..   ",
"..@.&&&&&&&&&&&&&&&&&&&&&&&..   ",
"..@.@@@@@@@@@@@@@@@@@@@@@@...   ",
"..@@@@@@@@@@@@@@@@@@@@@@@@..    ",
"..@@@@@@@@@@@@@@@@@@@@@@@@..    ",
"..@@@@@@@@@@@@@@@@@@@@@@@@..    ",
"............................    ",
"............................    ",
"                                ",
"                                "};
