/* XPM */
static char * game_controller_xpm[] = {
"32 32 18 1",
" 	c None",
".	c #FFFFFF",
"+	c #000000",
"@	c #B6B6B6",
"#	c #002BFF",
"$	c #181818",
"%	c #ACACAC",
"&	c #121212",
"*	c #001B9D",
"=	c #A2A2A2",
"-	c #14930D",
";	c #FF1E11",
">	c #267E20",
",	c #950F08",
"'	c #9D9D9D",
")	c #FFF900",
"!	c #959595",
"~	c #BCB701",
"               ......           ",
"               ..++..           ",
"               ...++.           ",
"             ...++++.           ",
"            ..+++++..           ",
"            .++++...            ",
"            .++...              ",
"     ........+++.   .......     ",
"    ..@@@@@...++.. ..@@@@@..    ",
"   ..@@@@@@@..+++...@@@#@@@..   ",
"  ..@@@@$@@@@..++..@@@###@@@..  ",
" ..%%%%$$&%%%%.%%.%%%###**%%%.. ",
"..%%%%%&&&%%%%%%%%%%%%***%%%%%..",
".=======&==========-===*===;===.",
".===$&=====$$=====---=====;;;==.",
".==$$&&===$$&&===--->>===;;;,,=.",
".'''&&'''''&&'''''>>>''''',,,''.",
".'''''''$''''''''''>''')''','''.",
"..'''''$$&'''''..''''')))'''''..",
" ..!!!!$&&!!!!....!!!)))~~!!!.. ",
"  ..!!!!&!!!!..  ..!!!~~~!!!..  ",
"   ..!!!!!!!..    ..!!!~!!!..   ",
"    ..!!!!!..      ..!!!!!..    ",
"     .......        .......     ",
"                                ",
"                                ",
"                                ",
"                                ",
"                                ",
"                                ",
"                                ",
"                                "};
