/* XPM */
static char * graphics_pallete_32x32_xpm[] = {
"32 32 14 1",
" 	c None",
".	c #D4D4D4",
"+	c #FFCAAD",
"@	c #FF0000",
"#	c #FFC5A4",
"$	c #FAC2A3",
"%	c #FF6600",
"&	c #F2BD9F",
"*	c #E8B396",
"=	c #BAFF00",
"-	c #0100AC",
";	c #1A6E31",
">	c #DCA98D",
",	c #D2A287",
"                                ",
"                 .....          ",
"               ...+++...        ",
"             ...+++++++...      ",
"            ..+++++@@@+++..     ",
"           ..#####@@@@@###..    ",
"          ..#####@@@@@@@@##..   ",
"         ..#####@@@@@@@@@###..  ",
"         .$$$$$$@@@@@@@@$$$$$.  ",
"        ..$$$$$$@@@@@@@$$$$$$.. ",
"        .$$$$$$$$@@@@@@$$%%%$$. ",
"        .$$$$$$$$$$$@@@$%%%%%$..",
"        ..&&&&&&&&&&&@@&%%%%%&&.",
"         .&&&&&&&&&&&@@&%%%%%%&.",
"      ....&&&&&&&&&&&@@&%%%%%%&.",
"      .&&&&&&&&&&&&&&&@&%%%%%%..",
"    ...&&&&&&&&&&&&&&&&&&%%%%&. ",
"   ..***************===**%%%%.. ",
"  ..**************=======*%**.  ",
"  .***---*********========%*..  ",
"  .**-----***;;;**========*..   ",
"  .>>----->;;;;;;>>=======..    ",
"  .>------>;;;;;;>>=======.     ",
"  .>------>;;;;;;;>>==>==..     ",
"  .>>----->>;;;;;;;>=>.==.      ",
"  ..>>>---->;;;;;;>>=>.==.      ",
"   ..,,---,,;;;;;;,,=..==.      ",
"    .,,,--,,;;;;;;,.=...=.      ",
"    ..,,,,,,;;;;,;..=. .=.      ",
"     ...,,,,,,;;....=. .=.      ",
"       ..,,,,.;..  .=. .=.      ",
"        ........   ... .=.      "};
