/* XPM */
static char * media_32x32_xpm[] = {
"32 32 13 1",
" 	c None",
".	c #B9B9B9",
"+	c #BEBEBE",
"@	c #FF84E6",
"#	c #CF64B9",
"$	c #C5C5C5",
"%	c #CBCBCB",
"&	c #AB5098",
"*	c #B35AA1",
"=	c #DBDBDB",
"-	c #7F2F6E",
";	c #E9E9E9",
">	c #FFFFFF",
"          ............          ",
"        ................        ",
"      ++++++@@@@@@@@++++++      ",
"     +++++@@@@@@@@@@@@+++++     ",
"    ++++@@@@@++++++@@@##+++     ",
"   ++++@@@@++++++++++####++++   ",
"  $$$$@@@$$$$$$  $$$$$$###$$$$  ",
"  $$$@@@$$$$$      $$$$$###$$$  ",
" $$$###$$$$          $$$$###$$$ ",
"$$$$##$$$$            $$$$##$$$ ",
"$$$##$$$$              $$$$##$$$",
"%%%##%%%                %%%#&%%%",
"%%###%%                  %%&&&%%",
"%%##%%%                  %%%&&%%",
"%%##%%%                  %%%&&%%",
"%%#*%%                    %%&&%%",
"==**=======          =======&&==",
"==**========        ========&&==",
"==******&====      ====*****&-==",
"==******&&====    ====******&-==",
"==******&&-====  ====******&&-==",
";;******&&--;;;  ;;;*****&&&&-;;",
";;&&***&&&&--;;  ;;&&&&&&&&&--;;",
";;&&&&&&&&&--;;  ;;&&&&&&&&&--;;",
";;;&&&&&&&&--;;  ;;&&&&&&&&--;;;",
">>>--&&&&&--->>  >>&&&&&&&--->>>",
" >>>-------->>>  >>>--&----->>> ",
" >>>>------>>>>  >>>>------>>>> ",
"  >>>>---->>>>    >>>>---->>>>  ",
"   >>>>>>>>>>      >>>>>>>>>>   ",
"    >>>>>>>>        >>>>>>>>    ",
"                                "};
