/* XPM */
static char * network_32x32_xpm[] = {
"32 32 11 1",
" 	c None",
".	c #FFFFFF",
"+	c #2851F9",
"@	c #4969F6",
"#	c #3A5A95",
"$	c #484CBC",
"%	c #5571EA",
"&	c #647AD5",
"*	c #3F65AB",
"=	c #5D80C2",
"-	c #C1C1C1",
"                                ",
"         .............          ",
"       ......+...+......        ",
"     ......++.+.+.++......      ",
"    .....+++.++.++.+++.....     ",
"    ...++++.+++.+++.+@@@...     ",
"  ....++++.++++.++++.@@@#....   ",
"  ...+++++.++++.++@@.@@###...   ",
" ...@.@++.+++++.@@@@@.@##.$...  ",
"....@@.@.@+++@@.@@@@@@.#.$$.... ",
"...@@@@....@@@@.@@@@....$$$$... ",
"..@@@@@.@@@...@.@...$$$.$$$$#.. ",
"..@@@@@.@@@@@.....%$$$$.$$$$#.. ",
"..$$$$.$$$$$$$$.$$$$$$$$.$$$#.. ",
"..$$$$.$$$$$$$$.$$$$$$$$.$$$$.. ",
"..$$$$.$$$$$$$$.$$$$$$$$.$$$$.. ",
"............................... ",
"..&&&&.$$$$$$$$.$$$$$$$$.$***.. ",
"..$$$$.$$$$$$$$.$$$$$$$$.****.. ",
"..$$$$..$$$$$$$.$$$$$$$..****.. ",
"..$$$$$.$$$$$.....$$$$$.*****.. ",
"..$$$$$.$$$...$.$...$$$.*****.. ",
"...$$$$....####.####....****... ",
"....$$.#.######.######.=.**.... ",
" ...$.###.#####.#####.***.*...  ",
"  ...#####.####.####.*****...   ",
"  ....####.####.##**.****....   ",
"    ...****.###.***.****...     ",
"    .....***.**.**.***.....     ",
"     ......**-*.*-**......      ",
"       ......*...*......        ",
"         .............          "};
