/* XPM */
static char * office_32x32_xpm[] = {
"32 32 13 1",
" 	c None",
".	c #FFFFFF",
"+	c #939393",
"@	c #737373",
"#	c #907150",
"$	c #8A6D4E",
"%	c #82674B",
"&	c #B0C153",
"*	c #97A93D",
"=	c #9C8063",
"-	c #A8BC40",
";	c #8E7355",
">	c #856B4F",
"                                ",
"          ............          ",
"         ..++++++++++..         ",
"        ..++@@@@@@@@++..        ",
"        .++@........+++.        ",
"        .+@....  ....+@.        ",
".........+@...    ...+@.........",
".........+@..........@@.........",
"..########################$$$$..",
"..#######################$$$$$..",
"..#####################$$$$$$%..",
"...$$$$$$$$$$$$$$$$$$$$$$$$%%...",
" ..$$$$$$$$$$$$$$$$$$$$$$%%%%.. ",
" ...$$%%%%%%%%&&&*%%%%%%%%%%... ",
" .....%%%%%%%%&***%%%%%%%%..... ",
" ..=...%%%%%%%*%%*%%%%%%%...=.. ",
" ..==.....%%%%*%%*%%%%.....==.. ",
" ..===........*..*........===.. ",
" ..=========..***-..=========.. ",
" ..===========----==========;.. ",
" ..=======================;;;.. ",
" ..=================;;;;;;;;>.. ",
" ..;;======;;;;;;;;;;;;;;;;>>.. ",
" ..;;;;;;;;;;;;;;;;;;;;;;;>>>.. ",
" ..;;;;;;;;;;;;;;;;;;;;;>>>>>.. ",
" ..>;;;;;;;;;;;;;;;;;;;>>>>>>.. ",
" ..>>>;;;;;;;;;>>>>>>>>>>>>>>.. ",
" ...>>>>>>>>>>>>>>>>>>>>>>>>... ",
" ....>>>>>>>>>>>>>>>>>>>>>>.... ",
"  ............................  ",
"   ..........................   ",
"                                "};
