/* XPM */
static char * settings_cog_xpm[] = {
"32 32 12 1",
" 	c None",
".	c #FFFFFF",
"+	c #919191",
"@	c #8B8989",
"#	c #898989",
"$	c #858585",
"%	c #828282",
"&	c #767676",
"*	c #6C6C6C",
"=	c #636262",
"-	c #565656",
";	c #4B4B4B",
"    .... ....                   ",
"   ............                 ",
"  ...+.+++.+....                ",
" ...+++++++++...                ",
" ..@@@@@@@@@@@..                ",
" ...@@@...@@@...                ",
" ..@@@.. ..@@@..                ",
"  .###.   .###.                 ",
" +.$$$.. ..$$$..                ",
"  ..$$$...$$$... .......        ",
" ..%%%%%%%%%%%.  .......  ..    ",
" ...%%%%%%%%%.....%%%%%......   ",
" ....%.%%%.%...%..%%%%%..%....  ",
"  ............&&&&&&&&&&&&&.... ",
"   ..... ....&&&&&&&&&&&&&&&... ",
"          ..&&&&&&&&&&&&&&&&&.. ",
"         ....&&&&&&&&&&&&&&&..  ",
"         ....*****.....*****....",
"         ..******..   ..******..",
"         ..******.     .******..",
"         ..******.     .******..",
"         ..======.     .======..",
"         ..======..   ..======..",
"         ....=====.....=====....",
"           ..---------------..  ",
"          ..-----------------.. ",
"          ...---------------... ",
"          ....;;;;;;;;;;;;;.... ",
"           ....;..;;;;;..;....  ",
"            ......;;;;;......   ",
"             ..  .......  ..    ",
"                 .......        "};
