/* XPM */
static char * term_32x32_xpm[] = {
"32 32 8 1",
" 	c None",
".	c #FFFFFF",
"+	c #373737",
"@	c #333333",
"#	c #2D2D2D",
"$	c #AFAFAF",
"%	c #222222",
"&	c #161616",
"                                ",
"                                ",
"   .............                ",
"  ...............               ",
" .............................. ",
" .++++++++++++++++++++++++++++. ",
" .++++++++++++++++++++++++++++. ",
" .++++++...+++++++++++++++++++. ",
" .+++++.....++++++++++++++++++. ",
" .++++....++++++++++++++++++++. ",
" .@@@....@@@@@@@@@@@@@@@@@@@@@. ",
" .@@....@@@@@@@@@@@@@@@@@@@@@@. ",
" .@@...@@@@@@@@@@@@@@@@@@@@@@@. ",
" .@@....@@@@@@@@@@@@@@@@@@@@@@. ",
" .@@@....@@@@@@@@@@@@@@@@@@@@@. ",
" .####....####################. ",
" .#####.....##################. ",
" .######...###################. ",
" .############################. ",
" .$...........$%%%%%%%%%%%%%%%. ",
" .$$.........$$%%%%%%%%%%%%%%%. ",
" .%%$$$$$$$$$%%%%%%%%%%%%%%%%%. ",
" .%%%%%%%%%%%%%%%%%%%%%%%%%%%%. ",
" .%%%%%%%%%%%%%%%%%%%%%%%%%%%%. ",
" .&&&&&&&&&&&&&&&&&&&&&&&&&&&&. ",
" .&&&&&&&&&&&&&&&&&&&&&&&&&&&&. ",
" .&&&&&&&&&&&&&&&&&&&&&&&&&&&&. ",
" .............................. ",
"                                ",
"                                ",
"                                ",
"                                "};
