/* XPM */
static char * utils_32x32_xpm[] = {
"32 32 8 1",
" 	c None",
".	c #FFFFFF",
"+	c #AA49B1",
"@	c #8D3E93",
"#	c #803C86",
"$	c #723877",
"%	c #662F6B",
"&	c #5E2B62",
"      ....................      ",
"     ......................     ",
"    ....++++++++++++++++....    ",
"   ....++++++++++++++++@@....   ",
"   ...+++++++++++++++++@@@...   ",
"  ...+++++............@@@@@...  ",
"  ...++++..............@@@@...  ",
"  ..++++....        ....@@##..  ",
" ...+++....          ....###... ",
" ...@++...            ...###... ",
" ..@@@@..              ..###$.. ",
"...@@@...              ...##$...",
"...@@@......        ......##$...",
"..@@@@.......      .......##$$..",
"..@@@@@@@@............#####$$$..",
"..###@@@@@@..........######$$%..",
"..#######@@@##############$$$%..",
"..######################$$$$%%..",
"..#################$$$$$$$$%%%..",
"..$#######$$$$$$$$$$$$$$$$%%%%..",
"..$$$$$$$$$$$$$$$$$$$$$$$%%%%&..",
"..$$$$$$$$$$$$$$$$$$$$$%%%%%%&..",
"..$$$$$$$$$$$%%%%%%%%%%%%%%%&&..",
"..%%%%%%%%%%%%%%%%%%%%%%%%%%&&..",
"..%%%%%%%%%%%%%%%%%%%%%%%%%&&&..",
"...%%%%%%%%%%%%%%%%%%%%%%&&&&...",
"...%%%%%%%%%%%%%%%%%%%%&&&&&&...",
" ..&&&&&&&&&&&&&&&&&&&&&&&&&&.. ",
" ...&&&&&&&&&&&&&&&&&&&&&&&&... ",
" ......&&&&&&&&&&&&&&&&&&...... ",
"  ............................  ",
"     ......................     "};
