/* XPM */
static char * volume_32x32_xpm[] = {
"32 32 5 1",
" 	c None",
".	c #FFFFFF",
"+	c #3F3F3F",
"@	c #878787",
"#	c #222222",
"               ...              ",
"               ....             ",
"              ..+..     ...     ",
"             ..++..     .+.     ",
"            ..+++..     .+.     ",
"           ..++@+..     .+..    ",
"          ..++@@+..  ....++..   ",
"         ..++@@@+..  .+...++.   ",
" .........+++@@++..  .+...++..  ",
" ........+++@@+++..  .+...+++.  ",
" ..++++++++@@@+++.....++..+++.. ",
" ..++@@@@@@@@++++..+..++...+++. ",
" ..+@@@@@@@@+++++..+..++...+++. ",
" ..+@@@@+++++++++..++..++..+++. ",
" ..+@@@++++++++++...+..++..+++. ",
" ..+@@+++++++++++...+..++...++. ",
" ..+@@+++++++++++...+..++...++. ",
" ..+@++++++++++++...+..++..+++. ",
" ..+@++++++++++++..++..++..+++. ",
" ..++++++++++++++..+..++...+++. ",
" ..++++++++++++++..+..++...+++. ",
" ..++++++++++++++.....++..+++.. ",
" ........##++++++..  .+...+++.  ",
" .........###+++#..  .+...++..  ",
"         ..###++#..  .+...++.   ",
"          ..#####..  ....++..   ",
"           ..####..     .+..    ",
"            ..###..     .+.     ",
"             ..##..     .+.     ",
"              ..#..     ...     ",
"               ....             ",
"               ...              "};
