/* XPM */
static char * web_32x32_xpm[] = {
"32 32 17 1",
" 	c None",
".	c #C6C6C6",
"+	c #8CA6AF",
"@	c #318BD2",
"#	c #347BC7",
"$	c #FFFFFF",
"%	c #3473C6",
"&	c #3276BF",
"*	c #B73B3B",
"=	c #AC2F2F",
"-	c #A22323",
";	c #2F6BC3",
">	c #DADADA",
",	c #1B1B1B",
"'	c #949494",
")	c #2657A7",
"!	c #2860BC",
"             ......       ..    ",
"         ..............  ....   ",
"...... ......++++++...........  ",
"..  ......++++@@@@++++........  ",
".    ...+++@@@@@@@@@#+++.....   ",
".   ...++@@@@@$$@$@####++...    ",
".. ...++@@@@@@$$$$######++...   ",
".....++@@@@@@@$$$$#####%%++...  ",
" ...++@@@@@@@@$&$$#***=%%%++..  ",
" ...+@@@@@@@@@&&&&***===%%%+... ",
" ..++@@@@@@@&&&&&***===-%%%++.. ",
" ..+@@@@@@@&&&&&***===--%%%%+.. ",
" ..+@@@@@@&&&&&***===---%%%%+.. ",
"..++@@@@&&&&&&***===---%%%%;++..",
"..+@@$@$&&&&&>,*===---%%$$$;;+..",
"..+@@$$$&&&&>>>,,=---%%%$$;;;+..",
"..+@&$$$&&&>>>$,,---%%%;$$$;;+..",
"..+&&$$$&&>>>$$$',-%%%;;$$$;;+..",
"..++&&&&&>>>$$$'''%%;;;;;;;;++..",
" ..+&&&&>>>$$$'''%%;;;;;;;;)+.. ",
" ..+&&&%>>$$$'''%%;;;;;;;)))+.. ",
" ..++&%%>$$$'''%%;;;;;;;)))++.. ",
" ...+%%%$$$'''%;;;;;;;)))))+... ",
"  ..++%%%$'''%$$$$;;;)))))++..  ",
"  ...++%%%%%%;$$!!;;)))))++..   ",
"   ...++%%%;;;;$$$))))))++...   ",
"  .....++%;;;;$$$$)))))++...    ",
" .......+++;;;;))))))+++...     ",
" .........++++))))++++....      ",
"  ....  .....++++++......       ",
"   ..    ..............         ",
"             ......             "};
