/* XPM */
static char * icewm_xpm[] = {
"58 20 4 1",
" 	c #4F4F4F",
".	c #1E1E1E",
"+	c #303030",
"@	c #FFFFFF",
"                                                          ",
"..                                                        ",
"...                                                       ",
"...++++++++++++++++++++++++++++++++++++++++++++++++++++   ",
"...++++++++++++++++++++++++++++++++++++++++++++++++++++   ",
"...++++++++++++++++++++++++++++++++++++++++++++++++++++   ",
"...++++@@@@@@++++@@@@@@@@+++@@@@@+++@@@@@@+++@@@@@@@@++   ",
"...+++@@@+++@@+++@@+@@+@@++@@@@@@@++@@@@@@@++@++@@++@++   ",
"...+++@@@+++++++++++@@+++++@@+++@@++@@+++@@+++++@@+++++   ",
"...++++@@@@@@+++++++@@+++++@@+++@@++@@+++@@+++++@@+++++   ",
"...++++++++@@@++++++@@+++++@@+++@@++@@@@@@++++++@@+++++   ",
"...+++++++++@@++++++@@+++++@@@@@@@++@@+++@++++++@@+++++   ",
"...+++++++++@@++++++@@+++++@@+++@@++@@+++@@+++++@@+++++   ",
"...+++@@@++@@@++++++@@+++++@@+++@@++@@+++@@+++++@@+++++   ",
"...++++@@@@@@++++++@@@@++++@@+++@@++@@+++@@++++@@@@++++   ",
"...++++++++++++++++++++++++++++++++++++++++++++++++++++   ",
"...++++++++++++++++++++++++++++++++++++++++++++++++++++   ",
".......................................................   ",
"........................................................  ",
"......................................................... "};
