/* XPM */
static char * windows_xpm[] = {
"19 19 3 1",
" 	c None",
".	c #FFFFFF",
"+	c #9B9B9B",
"                   ",
"                   ",
"                   ",
"                   ",
"   ...........     ",
"   ...........     ",
"   .+++++++++.     ",
"   .         .     ",
"   .         .     ",
"   .  ............ ",
"   .  ............ ",
"   ....++++++++++. ",
"      .          . ",
"      .          . ",
"      .          . ",
"      .          . ",
"      ............ ",
"                   ",
"                   "};
